<svg width="24" height="24" viewBox="0 0 24 24" fill="none" xmlns="http://www.w3.org/2000/svg">
<g clip-path="url(#clip0_381_65)">
<path d="M19.6141 1.97668C19.9437 1.53353 19.8516 0.907093 19.4085 0.577498C18.9653 0.247903 18.3389 0.33996 18.0093 0.783114L8.83672 13.116C8.50713 13.5592 8.59918 14.1856 9.04234 14.5152C9.48549 14.8448 10.1119 14.7527 10.4415 14.3096L19.6141 1.97668Z" fill="#767676"/>
<path d="M21.9191 3.6814C22.2487 3.23824 22.1567 2.61181 21.7135 2.28221C21.2704 1.95262 20.6439 2.04467 20.3143 2.48783L11.1417 14.8207C10.8121 15.2639 10.9042 15.8903 11.3474 16.2199C11.7905 16.5495 12.417 16.4575 12.7465 16.0143L21.9191 3.6814Z" fill="#767676"/>
<path d="M2.11999 10H22.12C22.67 10 23.12 10.45 23.12 11C23.12 17.07 18.19 22 12.12 22C6.04999 22 1.12 17.07 1.12 11C1.12 10.45 1.56999 10 2.11999 10Z" fill="#777C89"/>
<path d="M13.91 21H10.33C9.93787 21 9.62 21.3179 9.62 21.71V22.29C9.62 22.6821 9.93787 23 10.33 23H13.91C14.3021 23 14.62 22.6821 14.62 22.29V21.71C14.62 21.3179 14.3021 21 13.91 21Z" fill="#777C89"/>
</g>
<defs>
<clipPath id="clip0_381_65">
<rect width="24" height="24" fill="white"/>
</clipPath>
</defs>
</svg>
